<?xml version="1.0" encoding="UTF-8" standalone="no"?>
<svg
   xmlns:dc="http://purl.org/dc/elements/1.1/"
   xmlns:cc="http://creativecommons.org/ns#"
   xmlns:rdf="http://www.w3.org/1999/02/22-rdf-syntax-ns#"
   xmlns:svg="http://www.w3.org/2000/svg"
   xmlns="http://www.w3.org/2000/svg"
   xmlns:sodipodi="http://sodipodi.sourceforge.net/DTD/sodipodi-0.dtd"
   xmlns:inkscape="http://www.inkscape.org/namespaces/inkscape"
   width="11.260929mm"
   height="7.8208146mm"
   viewBox="0 0 11.260929 7.8208146"
   version="1.1"
   id="svg8"
   inkscape:version="1.0.1 (3bc2e813f5, 2020-09-07)"
   sodipodi:docname="Button-Fullscreen.svg">
  <defs
     id="defs2">
    <clipPath
       clipPathUnits="userSpaceOnUse"
       id="clipPath90">
      <rect
         style="fill:#ffffff;stroke:#000000;stroke-width:1.88976;stroke-miterlimit:0;stroke-dashoffset:6.80315"
         id="rect92"
         width="81.071426"
         height="52.142853"
         x="-12.323519"
         y="-2.0895102" />
    </clipPath>
    <clipPath
       clipPathUnits="userSpaceOnUse"
       id="clipPath935">
      <rect
         style="fill:none;stroke:#000000;stroke-width:0.366303;stroke-miterlimit:0;stroke-dasharray:none;stroke-dashoffset:6.80315"
         id="rect937"
         width="42.560993"
         height="29.558985"
         x="3.719008"
         y="10.484007" />
    </clipPath>
  </defs>
  <sodipodi:namedview
     id="base"
     pagecolor="#ffffff"
     bordercolor="#666666"
     borderopacity="1.0"
     inkscape:pageopacity="0.0"
     inkscape:pageshadow="2"
     inkscape:zoom="15.839192"
     inkscape:cx="33.220419"
     inkscape:cy="5.8641476"
     inkscape:document-units="mm"
     inkscape:current-layer="layer1"
     inkscape:document-rotation="0"
     showgrid="false"
     inkscape:window-width="1920"
     inkscape:window-height="1057"
     inkscape:window-x="-8"
     inkscape:window-y="-8"
     inkscape:window-maximized="1" />
  <metadata
     id="metadata5">
    <rdf:RDF>
      <cc:Work
         rdf:about="">
        <dc:format>image/svg+xml</dc:format>
        <dc:type
           rdf:resource="http://purl.org/dc/dcmitype/StillImage" />
        <dc:title></dc:title>
      </cc:Work>
    </rdf:RDF>
  </metadata>
  <g
     inkscape:label="Layer 1"
     inkscape:groupmode="layer"
     id="layer1"
     transform="translate(-47.630451,-114.01285)">
    <g
       id="g108"
       transform="matrix(0.26458333,0,0,0.26458333,46.646463,111.23896)"
       clip-path="url(#clipPath935)">
      <g
         id="g102">
        <path
           d="m 35.189,11.829 c 0,0.746 0.603,1.347 1.347,1.347 h 7.051 v 6.193 c 0,0.741 0.602,1.345 1.346,1.345 0.741,0 1.347,-0.604 1.347,-1.345 v -8.885 h -9.743 c -0.745,-10e-4 -1.348,0.603 -1.348,1.345 z"
           id="path94" />
        <path
           d="M 13.142,10.483 H 3.72 v 8.885 c 0,0.741 0.604,1.345 1.346,1.345 0.746,0 1.347,-0.604 1.347,-1.345 v -6.193 h 6.729 c 0.743,0 1.347,-0.601 1.347,-1.347 -0.001,-0.741 -0.605,-1.345 -1.347,-1.345 z"
           id="path96" />
        <path
           d="m 13.142,37.35 h -6.73 v -5.867 c 0,-0.744 -0.601,-1.346 -1.347,-1.346 -0.741,0 -1.346,0.602 -1.346,1.346 v 8.56 h 9.422 c 0.743,0 1.347,-0.602 1.347,-1.347 0,-0.744 -0.604,-1.346 -1.346,-1.346 z"
           id="path98" />
        <path
           d="m 44.933,30.137 c -0.744,0 -1.346,0.602 -1.346,1.346 v 5.867 h -7.051 c -0.744,0 -1.347,0.603 -1.347,1.346 0,0.745 0.603,1.347 1.347,1.347 h 9.743 v -8.56 c 0,-0.745 -0.602,-1.346 -1.346,-1.346 z"
           id="path100" />
      </g>
      <text
         x="0"
         y="65"
         fill="#000000"
         font-size="5px"
         font-weight="bold"
         font-family="'Helvetica Neue', Helvetica, Arial-Unicode, Arial, Sans-serif"
         id="text104">Created by Luboš Volkov</text>
      <text
         x="0"
         y="70"
         fill="#000000"
         font-size="5px"
         font-weight="bold"
         font-family="'Helvetica Neue', Helvetica, Arial-Unicode, Arial, Sans-serif"
         id="text106">from the Noun Project</text>
    </g>
  </g>
</svg>
