<?xml version="1.0" encoding="UTF-8" standalone="no"?>
<svg
   xmlns:dc="http://purl.org/dc/elements/1.1/"
   xmlns:cc="http://creativecommons.org/ns#"
   xmlns:rdf="http://www.w3.org/1999/02/22-rdf-syntax-ns#"
   xmlns:svg="http://www.w3.org/2000/svg"
   xmlns="http://www.w3.org/2000/svg"
   xmlns:sodipodi="http://sodipodi.sourceforge.net/DTD/sodipodi-0.dtd"
   xmlns:inkscape="http://www.inkscape.org/namespaces/inkscape"
   xml:space="preserve"
   version="1.1"
   style="image-rendering:optimizeQuality;shape-rendering:geometricPrecision;text-rendering:geometricPrecision"
   viewBox="0 0 246.29056 215.0647"
   x="0px"
   y="0px"
   fill-rule="evenodd"
   clip-rule="evenodd"
   id="svg24"
   sodipodi:docname="noun_Coffee Bean_2443894.svg"
   width="246.29056"
   height="215.0647"
   inkscape:version="1.0.1 (3bc2e813f5, 2020-09-07)"><metadata
     id="metadata28"><rdf:RDF><cc:Work
         rdf:about=""><dc:format>image/svg+xml</dc:format><dc:type
           rdf:resource="http://purl.org/dc/dcmitype/StillImage" /></cc:Work></rdf:RDF></metadata><sodipodi:namedview
     pagecolor="#ffffff"
     bordercolor="#666666"
     borderopacity="1"
     objecttolerance="10"
     gridtolerance="10"
     guidetolerance="10"
     inkscape:pageopacity="0"
     inkscape:pageshadow="2"
     inkscape:window-width="1920"
     inkscape:window-height="1057"
     id="namedview26"
     showgrid="false"
     inkscape:zoom="3.3116279"
     inkscape:cx="123.2388"
     inkscape:cy="110.2824"
     inkscape:window-x="1912"
     inkscape:window-y="-8"
     inkscape:window-maximized="1"
     inkscape:current-layer="svg24" /><defs
     id="defs4"><style
       type="text/css"
       id="style2">
   
    .fil0 {fill:black}
   
  </style></defs><g
     id="g18"
     transform="translate(0.23879739,0.06470237)"
     style="fill:#be5a5a;fill-opacity:1"><path
       class="fil0"
       d="M 1,108 C 7,64 27,26 72,16 53,56 48,73 58,117 c 8,39 5,60 -9,97 C 5,202 -4,147 1,108 Z"
       id="path6"
       style="fill:#be5a5a;fill-opacity:1" /><path
       class="fil0"
       d="M 67,115 C 58,75 63,55 82,19 c 39,17 48,66 43,105 -6,43 -24,77 -66,91 14,-39 17,-58 8,-100 z"
       id="path8"
       style="fill:#be5a5a;fill-opacity:1" /><path
       class="fil0"
       d="m 168,166 c -17,-21 -26,-46 -12,-70 10,25 16,34 40,49 21,12 30,22 40,44 -24,15 -52,-4 -68,-23 z"
       id="path10"
       style="fill:#be5a5a;fill-opacity:1" /><path
       class="fil0"
       d="m 199,140 c -22,-14 -29,-24 -37,-48 24,-10 50,7 65,25 17,20 25,43 14,68 -12,-23 -19,-32 -42,-45 z"
       id="path12"
       style="fill:#be5a5a;fill-opacity:1" /><path
       class="fil0"
       d="m 187,55 c 13,-15 19,-33 9,-50 -7,18 -12,25 -29,35 -15,9 -21,16 -29,32 18,10 38,-3 49,-17 z"
       id="path14"
       style="fill:#be5a5a;fill-opacity:1" /><path
       class="fil0"
       d="m 165,36 c 16,-9 21,-17 27,-34 -17,-7 -36,5 -47,18 -12,15 -18,31 -10,49 9,-17 14,-23 30,-33 z"
       id="path16"
       style="fill:#be5a5a;fill-opacity:1" /></g></svg>
