<?xml version="1.0" encoding="UTF-8" standalone="no"?>
<svg
   xmlns:dc="http://purl.org/dc/elements/1.1/"
   xmlns:cc="http://creativecommons.org/ns#"
   xmlns:rdf="http://www.w3.org/1999/02/22-rdf-syntax-ns#"
   xmlns:svg="http://www.w3.org/2000/svg"
   xmlns="http://www.w3.org/2000/svg"
   xmlns:sodipodi="http://sodipodi.sourceforge.net/DTD/sodipodi-0.dtd"
   xmlns:inkscape="http://www.inkscape.org/namespaces/inkscape"
   version="1.1"
   x="0px"
   y="0px"
   viewBox="0 0 63.93 60.099998"
   xml:space="preserve"
   id="svg12"
   sodipodi:docname="noun_Cosmetics_3762432.svg"
   width="63.93"
   height="60.099998"
   inkscape:version="1.0.1 (3bc2e813f5, 2020-09-07)"><metadata
     id="metadata18"><rdf:RDF><cc:Work
         rdf:about=""><dc:format>image/svg+xml</dc:format><dc:type
           rdf:resource="http://purl.org/dc/dcmitype/StillImage" /></cc:Work></rdf:RDF></metadata><defs
     id="defs16" /><sodipodi:namedview
     pagecolor="#ffffff"
     bordercolor="#666666"
     borderopacity="1"
     objecttolerance="10"
     gridtolerance="10"
     guidetolerance="10"
     inkscape:pageopacity="0"
     inkscape:pageshadow="2"
     inkscape:window-width="1920"
     inkscape:window-height="1057"
     id="namedview14"
     showgrid="false"
     inkscape:zoom="11.125"
     inkscape:cx="31.97"
     inkscape:cy="34.454494"
     inkscape:window-x="1912"
     inkscape:window-y="-8"
     inkscape:window-maximized="1"
     inkscape:current-layer="svg12" /><g
     id="g6"
     transform="translate(-0.03,-1.95)"
     style="fill:#3af3c2;fill-opacity:1"><path
       d="M 19.36,2.1 V 14.41 H 8.77 V 2.1 Z M 0.04,28.69 h 18.4 V 50.57 H 0.04 Z m 28.06,25 c 0,4.53 -3.35,8.22 -7.47,8.22 H 7.5 c -4.12,0 -7.47,-3.69 -7.47,-8.22 v -0.8 h 19.55 c 0.64,0 1.15,-0.52 1.15,-1.15 v -24.2 c 0,-0.64 -0.52,-1.15 -1.15,-1.15 H 0.04 v -1.46 c 0,-4.53 3.35,-8.22 7.47,-8.22 h 0.11 c 0,0 0,0 0.01,0 0.01,0 0,0 0.01,0 h 12.88 c 0,0 0,0 0.01,0 0,0 0,0 0.01,0 h 0.11 c 4.12,0 7.47,3.69 7.47,8.22 z"
       id="path2"
       style="fill:#3af3c2;fill-opacity:1" /><path
       d="m 57,59.49 c 0,1.39 -0.79,2.56 -1.71,2.56 h -6.98 c -0.93,0 -1.72,-1.17 -1.72,-2.56 V 50.15 H 57 Z M 58.63,47.85 H 58.3 c -0.05,-0.01 -0.09,-0.01 -0.14,-0.01 -0.05,0 -0.09,0.01 -0.14,0.01 H 45.28 L 39.94,1.95 h 24.02 l -1.03,8.84 c -6.82,0.29 -12.29,5.91 -12.29,12.8 0,5.8 3.88,10.82 9.37,12.35 z m 1.66,-14.24 c -4.32,-1.37 -7.33,-5.39 -7.33,-10.02 0,-5.53 4.29,-10.07 9.71,-10.48 z"
       id="path4"
       style="fill:#3af3c2;fill-opacity:1" /></g></svg>
