<?xml version="1.0" encoding="UTF-8" standalone="no"?>
<svg
   xmlns:dc="http://purl.org/dc/elements/1.1/"
   xmlns:cc="http://creativecommons.org/ns#"
   xmlns:rdf="http://www.w3.org/1999/02/22-rdf-syntax-ns#"
   xmlns:svg="http://www.w3.org/2000/svg"
   xmlns="http://www.w3.org/2000/svg"
   xmlns:sodipodi="http://sodipodi.sourceforge.net/DTD/sodipodi-0.dtd"
   xmlns:inkscape="http://www.inkscape.org/namespaces/inkscape"
   version="1.1"
   x="0px"
   y="0px"
   viewBox="0 0 64.005241 59.849998"
   xml:space="preserve"
   id="svg12"
   sodipodi:docname="noun_Cosmetics_3762429.svg"
   width="64.005241"
   height="59.849998"
   inkscape:version="1.0.1 (3bc2e813f5, 2020-09-07)"><metadata
     id="metadata18"><rdf:RDF><cc:Work
         rdf:about=""><dc:format>image/svg+xml</dc:format><dc:type
           rdf:resource="http://purl.org/dc/dcmitype/StillImage" /></cc:Work></rdf:RDF></metadata><defs
     id="defs16" /><sodipodi:namedview
     pagecolor="#ffffff"
     bordercolor="#666666"
     borderopacity="1"
     objecttolerance="10"
     gridtolerance="10"
     guidetolerance="10"
     inkscape:pageopacity="0"
     inkscape:pageshadow="2"
     inkscape:window-width="1920"
     inkscape:window-height="1057"
     id="namedview14"
     showgrid="false"
     inkscape:zoom="11.125"
     inkscape:cx="32"
     inkscape:cy="25.873456"
     inkscape:window-x="1912"
     inkscape:window-y="-8"
     inkscape:window-maximized="1"
     inkscape:current-layer="svg12" /><g
     id="g6"
     transform="translate(0,-2.07)"
     style="fill:#ec434c;fill-opacity:1"><path
       d="M 22.62,15.79 V 3.28 c 0,-0.59 -0.48,-1.07 -1.07,-1.07 H 1.07 C 0.48,2.21 0,2.69 0,3.28 0,3.87 0.48,4.35 1.07,4.35 h 7.49 v 11.44 c -4.53,0.52 -8.08,4.66 -8.08,9.68 v 26.59 c 0,5.37 4.05,9.73 9.04,9.73 h 12.14 c 4.98,0 9.04,-4.37 9.04,-9.73 v -26.6 c 0,-5.02 -3.54,-9.16 -8.08,-9.67 z M 20.49,4.34 V 15.72 H 10.7 V 4.34 Z M 2.61,28.94 H 19.62 V 49.18 H 2.61 Z m 25.96,23.12 c 0,4.19 -3.1,7.6 -6.91,7.6 H 9.52 c -3.81,0 -6.9,-3.41 -6.9,-7.6 V 51.32 H 20.7 c 0.59,0 1.07,-0.48 1.07,-1.07 V 27.88 c 0,-0.59 -0.48,-1.07 -1.07,-1.07 H 2.61 v -1.35 c 0,-4.19 3.1,-7.6 6.9,-7.6 h 0.1 c 0,0 0,0 0.01,0 0.01,0 0,0 0.01,0 h 11.91 c 0,0 0,0 0.01,0 0,0 0,0 0.01,0 h 0.1 c 3.81,0 6.91,3.41 6.91,7.6 z"
       id="path2"
       style="fill:#ec434c;fill-opacity:1" /><path
       d="M 63.73,2.43 C 63.53,2.2 63.24,2.07 62.93,2.07 H 38.32 c -0.3,0 -0.59,0.13 -0.8,0.36 -0.2,0.23 -0.3,0.53 -0.26,0.83 l 5.18,44.59 c 0.06,0.54 0.52,0.94 1.06,0.94 h 0.04 v 8.63 c 0,2.48 1.67,4.5 3.72,4.5 h 6.45 c 2.05,0 3.72,-2.02 3.72,-4.5 v -8.63 h 0.32 c 0.54,0 1,-0.41 1.06,-0.94 l 1.47,-12.62 c 0.03,-0.07 0.06,-0.13 0.08,-0.2 0.03,-0.14 0.02,-0.28 0,-0.41 L 64,3.26 c 0.03,-0.3 -0.07,-0.6 -0.27,-0.83 z m -8.43,55 c 0,1.28 -0.73,2.37 -1.58,2.37 h -6.45 c -0.86,0 -1.59,-1.08 -1.59,-2.37 V 48.8 h 9.62 z m 1.5,-10.77 h -0.31 c -0.04,-0.01 -0.09,-0.01 -0.13,-0.01 -0.04,0 -0.09,0.01 -0.13,0.01 H 44.46 L 39.52,4.21 h 22.22 l -0.95,8.17 c -6.31,0.26 -11.37,5.46 -11.37,11.84 0,5.36 3.59,10.01 8.66,11.42 z m 1.53,-13.18 c -3.99,-1.26 -6.78,-4.98 -6.78,-9.27 0,-5.11 3.97,-9.31 8.98,-9.69 z"
       id="path4"
       style="fill:#ec434c;fill-opacity:1" /></g></svg>
