<?xml version="1.0" encoding="UTF-8" standalone="no"?>
<svg
   xmlns:dc="http://purl.org/dc/elements/1.1/"
   xmlns:cc="http://creativecommons.org/ns#"
   xmlns:rdf="http://www.w3.org/1999/02/22-rdf-syntax-ns#"
   xmlns:svg="http://www.w3.org/2000/svg"
   xmlns="http://www.w3.org/2000/svg"
   xmlns:sodipodi="http://sodipodi.sourceforge.net/DTD/sodipodi-0.dtd"
   xmlns:inkscape="http://www.inkscape.org/namespaces/inkscape"
   height="67.152"
   width="97.079002"
   fill="#000000"
   version="1.1"
   x="0px"
   y="0px"
   viewBox="0 0 97.079002 67.152"
   enable-background="new 0 0 100 100"
   xml:space="preserve"
   id="svg4"
   sodipodi:docname="noun_Diamond_19507.svg"
   inkscape:version="1.0.1 (3bc2e813f5, 2020-09-07)"><metadata
     id="metadata10"><rdf:RDF><cc:Work
         rdf:about=""><dc:format>image/svg+xml</dc:format><dc:type
           rdf:resource="http://purl.org/dc/dcmitype/StillImage" /></cc:Work></rdf:RDF></metadata><defs
     id="defs8" /><sodipodi:namedview
     pagecolor="#ffffff"
     bordercolor="#666666"
     borderopacity="1"
     objecttolerance="10"
     gridtolerance="10"
     guidetolerance="10"
     inkscape:pageopacity="0"
     inkscape:pageshadow="2"
     inkscape:window-width="1920"
     inkscape:window-height="1057"
     id="namedview6"
     showgrid="false"
     inkscape:zoom="8.9"
     inkscape:cx="48.54"
     inkscape:cy="24.587236"
     inkscape:window-x="1912"
     inkscape:window-y="-8"
     inkscape:window-maximized="1"
     inkscape:current-layer="svg4" /><path
     fill="#000000"
     d="M 83.681,0 H 13.398 L 0,13.397 v 3.686 l 48.54,50.069 2.43,-2.429 0.07,0.041 0.149,-0.262 45.125,-46.636 0.765,-0.771 v -3.698 z m 2.427,9.8 3.598,3.598 h -7.195 z m -4.587,-4.587 0.899,0.9 -6.412,6.414 -7.313,-7.313 H 81.521 Z M 69.508,13.397 H 54.915 L 62.211,6.101 Z M 55.727,5.213 48.526,12.415 41.325,5.213 Z M 42.136,13.397 H 27.509 L 34.823,6.084 Z M 15.558,5.213 h 12.763 l -7.01,7.01 -6.381,-6.382 z m -4.315,4.313 3.87,3.871 H 7.373 Z M 7.372,18.611 H 19.769 L 36.501,47.74 Z M 45.932,53.692 25.782,18.61 h 20.15 z m 5.214,0.42 V 18.611 H 71.538 Z M 61.134,47.191 77.549,18.61 h 12.174 z"
     id="path2"
     style="fill:#e087bd;fill-opacity:1" /></svg>
