<?xml version="1.0" encoding="UTF-8" standalone="no"?>
<svg
   xmlns:dc="http://purl.org/dc/elements/1.1/"
   xmlns:cc="http://creativecommons.org/ns#"
   xmlns:rdf="http://www.w3.org/1999/02/22-rdf-syntax-ns#"
   xmlns:svg="http://www.w3.org/2000/svg"
   xmlns="http://www.w3.org/2000/svg"
   xmlns:sodipodi="http://sodipodi.sourceforge.net/DTD/sodipodi-0.dtd"
   xmlns:inkscape="http://www.inkscape.org/namespaces/inkscape"
   version="1.1"
   x="0px"
   y="0px"
   viewBox="0 0 62 51.523117"
   xml:space="preserve"
   id="svg16"
   sodipodi:docname="noun_hamper_3216083.svg"
   width="62"
   height="51.523117"
   inkscape:version="1.0.1 (3bc2e813f5, 2020-09-07)"><metadata
     id="metadata22"><rdf:RDF><cc:Work
         rdf:about=""><dc:format>image/svg+xml</dc:format><dc:type
           rdf:resource="http://purl.org/dc/dcmitype/StillImage" /></cc:Work></rdf:RDF></metadata><defs
     id="defs20" /><sodipodi:namedview
     pagecolor="#ffffff"
     bordercolor="#666666"
     borderopacity="1"
     objecttolerance="10"
     gridtolerance="10"
     guidetolerance="10"
     inkscape:pageopacity="0"
     inkscape:pageshadow="2"
     inkscape:window-width="1920"
     inkscape:window-height="1057"
     id="namedview18"
     showgrid="false"
     inkscape:zoom="10.171429"
     inkscape:cx="31"
     inkscape:cy="27.30483"
     inkscape:window-x="1912"
     inkscape:window-y="-8"
     inkscape:window-maximized="1"
     inkscape:current-layer="svg16" /><g
     id="g855"
     style="fill:#fbb000;fill-opacity:1"
     transform="translate(-4,-9.2384444)"><path
       d="M 32.34998,34.23159 H 6.56995 C 5.1499,34.23159 4,33.08157 4,31.66158 4,30.2416 5.1499,29.09157 6.56995,29.09157 h 22.33997 l 1.95996,3.52002 c 0.37011,0.69001 0.88012,1.22999 1.4801,1.62 z"
       id="path2"
       style="fill:#fbb000;fill-opacity:1" /><path
       d="m 66,31.66158 c 0,1.41998 -1.15002,2.57001 -2.57007,2.57001 H 37.41992 c 0.37012,-0.23999 0.71997,-0.54999 1.02002,-0.92999 0.96997,-1.20001 1.26001,-2.78003 0.81006,-4.21002 h 24.17993 c 1.42005,0 2.57007,1.15002 2.57007,2.57 z"
       id="path4"
       style="fill:#fbb000;fill-opacity:1" /><path
       d="M 37.1322,29.16848 C 22.96227,3.66527 27.84962,12.46159 26.79224,10.5585 c -0.71379,-1.29104 -2.33474,-1.6576 -3.5,-1 -1.23999,0.69 -1.68994,2.26001 -1,3.5 0.10227,0.18407 9.46149,17.0289 10.33997,18.60999 0.64005,1.18962 2.20606,1.70472 3.5,1 1.18284,-0.63091 1.71126,-2.2143 0.99999,-3.50001 z m -1.83069,1.30475 c -1.022,0.86132 -2.31076,-0.66974 -1.30859,-1.51221 l 0.02148,-0.01807 c 0.42285,-0.35645 1.05273,-0.30176 1.40918,0.12158 0.35547,0.42286 0.30079,1.05323 -0.12207,1.4087 z"
       id="path6"
       style="fill:#fbb000;fill-opacity:1" /><path
       d="M 7.70996,36.23159 12.5,58.31155 c 0.31995,1.42004 1.59998,2.45001 3.04004,2.45001 h 38.91992 c 1.44995,0 2.72998,-1.02997 3.05005,-2.45996 l 4.78992,-22.07001 z m 12.67993,19.39996 c -0.55994,0.09003 -1.06995,-0.27997 -1.15991,-0.81 l -2.75,-15.51996 c -0.1001,-0.54004 0.26001,-1.06 0.80005,-1.16003 0.54993,-0.08997 1.06995,0.27002 1.15991,0.81 l 2.76001,15.52002 c 0.09009,0.53998 -0.27002,1.06 -0.81006,1.15997 z m 7.31006,0.01001 c -0.57007,0.04004 -1.04004,-0.37 -1.09009,-0.90997 L 25.23999,39.21157 c -0.05005,-0.54999 0.34998,-1.02997 0.8999,-1.08002 0.54004,-0.04999 1.04004,0.36005 1.09009,0.91003 l 1.37,15.51001 c 0.04992,0.55 -0.34998,1.03999 -0.90003,1.08997 z m 8.30005,-1 c 0,0.54999 -0.44006,1 -1,1 -0.55005,0 -1,-0.45001 -1,-1 V 39.13155 c 0,-0.56 0.44995,-1 1,-1 0.55994,0 1,0.44 1,1 z m 7.3999,0.09003 c -0.11987,1.32001 -2.10986,1.13995 -1.98999,-0.17999 l 1.37012,-15.51001 c 0.04993,-0.54999 0.53992,-0.96002 1.07983,-0.91003 0.55005,0.05005 0.96008,0.53003 0.91016,1.08002 z m 7.38013,0.08997 c -0.09009,0.53003 -0.6001,0.90002 -1.16016,0.81 -0.53992,-0.09998 -0.8999,-0.62 -0.80994,-1.15997 l 2.75,-15.52002 c 0.09998,-0.53998 0.60999,-0.90997 1.16003,-0.81 0.55005,0.10004 0.90991,0.62 0.81006,1.16003 z"
       id="path8"
       style="fill:#fbb000;fill-opacity:1" /></g></svg>
