<?xml version="1.0" encoding="UTF-8" standalone="no"?>
<svg
   xmlns:dc="http://purl.org/dc/elements/1.1/"
   xmlns:cc="http://creativecommons.org/ns#"
   xmlns:rdf="http://www.w3.org/1999/02/22-rdf-syntax-ns#"
   xmlns:svg="http://www.w3.org/2000/svg"
   xmlns="http://www.w3.org/2000/svg"
   xmlns:sodipodi="http://sodipodi.sourceforge.net/DTD/sodipodi-0.dtd"
   xmlns:inkscape="http://www.inkscape.org/namespaces/inkscape"
   version="1.1"
   x="0px"
   y="0px"
   viewBox="0 0 78.429764 89.379997"
   xml:space="preserve"
   id="svg94"
   sodipodi:docname="noun_soap_2595338.svg"
   width="78.429764"
   height="89.379997"
   inkscape:version="1.0.1 (3bc2e813f5, 2020-09-07)"><metadata
     id="metadata100"><rdf:RDF><cc:Work
         rdf:about=""><dc:format>image/svg+xml</dc:format><dc:type
           rdf:resource="http://purl.org/dc/dcmitype/StillImage" /></cc:Work></rdf:RDF></metadata><defs
     id="defs98" /><sodipodi:namedview
     pagecolor="#ffffff"
     bordercolor="#666666"
     borderopacity="1"
     objecttolerance="10"
     gridtolerance="10"
     guidetolerance="10"
     inkscape:pageopacity="0"
     inkscape:pageshadow="2"
     inkscape:window-width="1920"
     inkscape:window-height="1057"
     id="namedview96"
     showgrid="false"
     inkscape:zoom="7.12"
     inkscape:cx="39.210235"
     inkscape:cy="43.784728"
     inkscape:window-x="1912"
     inkscape:window-y="-8"
     inkscape:window-maximized="1"
     inkscape:current-layer="svg94" /><g
     id="g969"
     transform="translate(-10.789765,-5.32)"
     style="fill:#62c8f6;fill-opacity:1"><g
       id="g14"
       style="fill:#62c8f6;fill-opacity:1"><g
         id="g12"
         style="fill:#62c8f6;fill-opacity:1"><g
           id="g10"
           style="fill:#62c8f6;fill-opacity:1"><g
             id="g8"
             style="fill:#62c8f6;fill-opacity:1"><g
               id="g6"
               style="fill:#62c8f6;fill-opacity:1"><g
                 id="g4"
                 style="fill:#62c8f6;fill-opacity:1"><path
                   d="m 34.07,15.63 c -1.09,0 -1.99,-0.89 -1.99,-1.98 0,-1.09 0.89,-1.99 1.99,-1.99 1.09,0 1.98,0.89 1.98,1.99 0.01,1.08 -0.88,1.98 -1.98,1.98 z m -0.01,-1.99 z"
                   id="path2"
                   style="fill:#62c8f6;fill-opacity:1" /></g></g></g></g></g></g><g
       id="g24"
       style="fill:#62c8f6;fill-opacity:1"><g
         id="g22"
         style="fill:#62c8f6;fill-opacity:1"><g
           id="g20"
           style="fill:#62c8f6;fill-opacity:1"><g
             id="g18"
             style="fill:#62c8f6;fill-opacity:1"><path
               d="m 22.76,50.53 c -0.36,0 -0.72,-0.1 -1.04,-0.3 -2.49,-1.53 -3.97,-4.18 -3.97,-7.1 0,-4.59 3.73,-8.32 8.32,-8.32 0.64,0 1.29,0.08 1.92,0.22 1.08,0.25 1.74,1.33 1.49,2.4 -0.25,1.08 -1.33,1.74 -2.41,1.49 -0.33,-0.08 -0.67,-0.12 -1,-0.12 -2.38,0 -4.32,1.94 -4.32,4.32 0,1.52 0.77,2.89 2.06,3.69 0.94,0.58 1.24,1.81 0.66,2.75 -0.38,0.63 -1.04,0.97 -1.71,0.97 z"
               id="path16"
               style="fill:#62c8f6;fill-opacity:1" /></g></g></g></g><g
       id="g34"
       style="fill:#62c8f6;fill-opacity:1"><g
         id="g32"
         style="fill:#62c8f6;fill-opacity:1"><g
           id="g30"
           style="fill:#62c8f6;fill-opacity:1"><g
             id="g28"
             style="fill:#62c8f6;fill-opacity:1"><path
               d="m 82.16,42.38 c -0.52,0 -1.04,-0.2 -1.44,-0.61 -0.77,-0.79 -0.75,-2.06 0.05,-2.83 1.27,-1.23 1.97,-2.88 1.97,-4.66 0,-3.57 -2.91,-6.48 -6.48,-6.48 -2.96,0 -5.54,2 -6.28,4.87 -0.28,1.07 -1.36,1.72 -2.44,1.44 -1.07,-0.28 -1.71,-1.37 -1.44,-2.44 1.19,-4.63 5.37,-7.87 10.15,-7.87 5.78,0 10.48,4.7 10.48,10.48 0,2.86 -1.13,5.54 -3.19,7.53 -0.37,0.38 -0.87,0.57 -1.38,0.57 z"
               id="path26"
               style="fill:#62c8f6;fill-opacity:1" /></g></g></g></g><g
       id="g44"
       style="fill:#62c8f6;fill-opacity:1"><g
         id="g42"
         style="fill:#62c8f6;fill-opacity:1"><g
           id="g40"
           style="fill:#62c8f6;fill-opacity:1"><g
             id="g38"
             style="fill:#62c8f6;fill-opacity:1"><path
               d="m 41.18,75.84 c -3.39,0 -6.74,-0.75 -9.44,-2.26 l -15.4,-8.64 c -3.13,-1.76 -4.9,-4.27 -4.96,-7.08 -0.07,-2.81 1.57,-5.41 4.62,-7.31 l 13.71,-8.57 c 0.94,-0.58 2.17,-0.3 2.76,0.64 0.58,0.94 0.3,2.17 -0.64,2.76 l -13.7,8.57 c -1.77,1.11 -2.78,2.5 -2.74,3.83 0.03,1.32 1.1,2.67 2.92,3.69 l 15.4,8.64 c 4.51,2.53 11.95,2.25 16.25,-0.61 L 80.35,49.33 c 1.78,-1.18 2.73,-2.61 2.68,-4.01 -0.05,-1.4 -1.1,-2.76 -2.97,-3.81 L 66.3,33.73 c -6.74,-3.61 -11.15,-1.75 -15.42,0.06 -1.08,0.46 -2.11,0.89 -3.15,1.22 -1.05,0.33 -2.18,-0.26 -2.51,-1.31 -0.33,-1.05 0.26,-2.18 1.31,-2.51 0.85,-0.27 1.79,-0.66 2.78,-1.08 4.41,-1.86 10.44,-4.41 18.9,0.12 L 82.02,38 c 3.07,1.73 4.9,4.34 5,7.14 0.1,2.81 -1.53,5.54 -4.47,7.49 L 52.16,72.81 c -3.02,2.01 -7.02,3.03 -10.98,3.03 z"
               id="path36"
               style="fill:#62c8f6;fill-opacity:1" /></g></g></g></g><g
       id="g54"
       style="fill:#62c8f6;fill-opacity:1"><g
         id="g52"
         style="fill:#62c8f6;fill-opacity:1"><g
           id="g50"
           style="fill:#62c8f6;fill-opacity:1"><g
             id="g48"
             style="fill:#62c8f6;fill-opacity:1"><path
               d="m 41.18,94.7 c -3.39,0 -6.75,-0.75 -9.44,-2.26 C 31.19,92.13 18,84.8 16.29,83.77 13.2,81.9 11.93,79.4 11.8,79.12 11.78,79.09 11.77,79.05 11.75,79.02 10.38,75.7 10.74,67.43 11.22,59.25 c 0.08,-1.29 0.14,-2.33 0.16,-2.98 0.03,-1.1 0.97,-1.98 2.06,-1.94 1.1,0.03 1.97,0.95 1.94,2.06 -0.02,0.68 -0.08,1.76 -0.16,3.1 -0.27,4.53 -0.89,15.09 0.21,17.95 0.14,0.25 1.03,1.77 2.93,2.92 1.65,1 15.2,8.52 15.33,8.6 4.51,2.53 11.95,2.25 16.25,-0.6 l 30.3,-20.14 c 9.19,-7.12 2.8,-23.28 2.73,-23.44 -0.41,-1.02 0.08,-2.19 1.1,-2.6 1.02,-0.41 2.19,0.08 2.6,1.1 0.32,0.78 7.63,19.2 -4.06,28.16 -0.04,0.03 -0.07,0.05 -0.11,0.08 L 52.16,91.68 c -3.02,2 -7.01,3.02 -10.98,3.02 z M 81.41,69.84 Z"
               id="path46"
               style="fill:#62c8f6;fill-opacity:1" /></g></g></g></g><g
       id="g64"
       style="fill:#62c8f6;fill-opacity:1"><g
         id="g62"
         style="fill:#62c8f6;fill-opacity:1"><g
           id="g60"
           style="fill:#62c8f6;fill-opacity:1"><g
             id="g58"
             style="fill:#62c8f6;fill-opacity:1"><path
               d="m 52.61,21.96 c -4.59,0 -8.32,-3.73 -8.32,-8.32 0,-4.59 3.73,-8.32 8.32,-8.32 4.59,0 8.32,3.73 8.32,8.32 0.01,4.59 -3.73,8.32 -8.32,8.32 z m 0,-12.64 c -2.38,0 -4.32,1.94 -4.32,4.32 0,2.38 1.94,4.32 4.32,4.32 2.38,0 4.32,-1.94 4.32,-4.32 C 56.94,11.26 55,9.32 52.61,9.32 Z"
               id="path56"
               style="fill:#62c8f6;fill-opacity:1" /></g></g></g></g><g
       id="g78"
       style="fill:#62c8f6;fill-opacity:1"><g
         id="g76"
         style="fill:#62c8f6;fill-opacity:1"><g
           id="g74"
           style="fill:#62c8f6;fill-opacity:1"><g
             id="g72"
             style="fill:#62c8f6;fill-opacity:1"><g
               id="g70"
               style="fill:#62c8f6;fill-opacity:1"><g
                 id="g68"
                 style="fill:#62c8f6;fill-opacity:1"><path
                   d="m 56.83,47.39 c -1.09,0 -1.99,-0.89 -1.99,-1.99 0,-1.1 0.89,-1.99 1.99,-1.99 1.09,0 1.98,0.89 1.98,1.99 0,1.1 -0.89,1.99 -1.98,1.99 z M 56.81,45.4 Z"
                   id="path66"
                   style="fill:#62c8f6;fill-opacity:1" /></g></g></g></g></g></g><g
       id="g88"
       style="fill:#62c8f6;fill-opacity:1"><g
         id="g86"
         style="fill:#62c8f6;fill-opacity:1"><g
           id="g84"
           style="fill:#62c8f6;fill-opacity:1"><g
             id="g82"
             style="fill:#62c8f6;fill-opacity:1"><path
               d="m 37.55,48.09 c -6.39,0 -11.59,-5.2 -11.59,-11.59 0,-6.39 5.2,-11.59 11.59,-11.59 6.39,0 11.59,5.2 11.59,11.59 0,6.39 -5.2,11.59 -11.59,11.59 z m 0,-19.18 c -4.18,0 -7.59,3.4 -7.59,7.59 0,4.19 3.4,7.59 7.59,7.59 4.19,0 7.59,-3.4 7.59,-7.59 0,-4.19 -3.4,-7.59 -7.59,-7.59 z"
               id="path80"
               style="fill:#62c8f6;fill-opacity:1" /></g></g></g></g></g></svg>
